<?xml version="1.0" standalone="no"?>
<!DOCTYPE svg PUBLIC "-//W3C//DTD SVG 20010904//EN"
 "http://www.w3.org/TR/2001/REC-SVG-20010904/DTD/svg10.dtd">
<svg version="1.0" xmlns="http://www.w3.org/2000/svg"
 width="752.000000pt" height="752.000000pt" viewBox="0 0 752.000000 752.000000"
 preserveAspectRatio="xMidYMid meet">
<metadata>
Created by potrace 1.14, written by Peter Selinger 2001-2017
</metadata>
<g transform="translate(0.000000,752.000000) scale(0.100000,-0.100000)"
fill="#000000" stroke="none">
<path d="M0 3760 l0 -3750 3760 0 3760 0 0 3750 0 3750 -3760 0 -3760 0 0
-3750z m2717 2082 c10 -6 13 -191 15 -848 l3 -839 1025 0 1025 0 3 839 c2 657
5 842 15 848 21 13 631 10 645 -4 17 -17 17 -3879 0 -3896 -14 -14 -624 -17
-645 -4 -10 6 -13 183 -15 808 l-3 799 -1025 0 -1025 0 -5 -805 -5 -805 -319
-3 c-227 -2 -323 1 -332 9 -19 16 -21 3878 -2 3897 14 14 624 17 645 4z"/>
</g>
</svg>
