<svg xmlns="http://www.w3.org/2000/svg" xmlns:xlink="http://www.w3.org/1999/xlink" width="21" height="20" viewBox="0 0 21 20">
  <defs>
    <style>
      .cls-1 {
        fill: #fff;
        fill-rule: evenodd;
        filter: url(#filter);
      }
    </style>
    <filter id="filter" x="0.625" y="0" width="20.375" height="20" filterUnits="userSpaceOnUse">
      <feFlood result="flood" flood-color="#e4e4e4"/>
      <feComposite result="composite" operator="in" in2="SourceGraphic"/>
      <feBlend result="blend" in2="SourceGraphic"/>
    </filter>
  </defs>
  <path id="instagram" class="cls-1" d="M18.454,20H3.182A2.523,2.523,0,0,1,.636,17.5V2.5A2.523,2.523,0,0,1,3.182,0H18.454A2.523,2.523,0,0,1,21,2.5v15A2.523,2.523,0,0,1,18.454,20ZM10.818,6.125A3.947,3.947,0,0,0,7.24,8.375h0C7.23,8.389,7.225,8.4,7.219,8.417c-0.037.082-.071,0.166-0.1,0.251-0.015.04-.031,0.08-0.045,0.121C7.042,8.877,7.018,8.966,7,9.056,6.985,9.1,6.972,9.138,6.963,9.181c-0.021.095-.035,0.191-0.049,0.287C6.909,9.507,6.9,9.545,6.9,9.585A3.848,3.848,0,0,0,6.873,10a3.946,3.946,0,0,0,7.891,0,3.863,3.863,0,0,0-.023-0.415c0-.04-0.013-0.078-0.018-0.117-0.014-.1-0.028-0.193-0.049-0.287-0.009-.042-0.022-0.083-0.033-0.125-0.023-.09-0.047-0.178-0.076-0.265-0.014-.041-0.03-0.081-0.045-0.121-0.032-.085-0.065-0.169-0.1-0.251C14.411,8.4,14.406,8.389,14.4,8.375h0A3.947,3.947,0,0,0,10.818,6.125ZM18.709,3.25a1.009,1.009,0,0,0-1.018-1H15.655a1.009,1.009,0,0,0-1.018,1v2a1.009,1.009,0,0,0,1.018,1h2.036a1.009,1.009,0,0,0,1.018-1v-2Zm0,5.125H16.832A6.023,6.023,0,0,1,17.055,10a6.181,6.181,0,0,1-6.236,6.125A6.181,6.181,0,0,1,4.582,10,6.024,6.024,0,0,1,4.8,8.375H2.927V16.75a1.009,1.009,0,0,0,1.018,1H17.691a1.009,1.009,0,0,0,1.018-1V8.375Z"/>
</svg>
