<svg xmlns="http://www.w3.org/2000/svg" xmlns:xlink="http://www.w3.org/1999/xlink" width="21" height="18" viewBox="0 0 21 18">
  <defs>
    <style>
      .cls-1 {
        fill: #fff;
        fill-rule: evenodd;
        filter: url(#filter);
      }
    </style>
    <filter id="filter" x="0" y="0.875" width="20.375" height="16.219" filterUnits="userSpaceOnUse">
      <feFlood result="flood" flood-color="#e4e4e4"/>
      <feComposite result="composite" operator="in" in2="SourceGraphic"/>
      <feBlend result="blend" in2="SourceGraphic"/>
    </filter>
  </defs>
  <path id="twitter" class="cls-1" d="M13.851,0.876a4.333,4.333,0,0,1,3.3,1.287,6.848,6.848,0,0,0,2.14-.708l0.52-.279A4.1,4.1,0,0,1,18.458,3.1,1.993,1.993,0,0,1,18,3.421v0.01A7.948,7.948,0,0,0,20.364,2.8v0.01a6.661,6.661,0,0,1-1.417,1.6l-0.652.509A11.542,11.542,0,0,1,18.1,7.552a11.545,11.545,0,0,1-8.184,9.072,12.734,12.734,0,0,1-5.911.239,15.415,15.415,0,0,1-2.456-.789,9.842,9.842,0,0,1-1.182-.6L0,15.257a6.969,6.969,0,0,0,1.335.05c0.411-.065.813-0.048,1.192-0.13a8.652,8.652,0,0,0,2.507-.888,4.665,4.665,0,0,0,1.131-.729,3.607,3.607,0,0,1-1.243-.219,4.159,4.159,0,0,1-2.65-2.625,4.228,4.228,0,0,0,1.865-.08A3.083,3.083,0,0,1,2.772,10.1,3.935,3.935,0,0,1,.805,6.584l0.428,0.2a4.633,4.633,0,0,0,.877.24,1.273,1.273,0,0,0,.571.05H2.66c-0.21-.24-0.553-0.4-0.764-0.658A4.14,4.14,0,0,1,.958,2.692a4.715,4.715,0,0,1,.448-1.068l0.02,0.01a2.523,2.523,0,0,0,.377.429A7.6,7.6,0,0,0,3.047,3.231,12.4,12.4,0,0,0,8.154,5.656a8.128,8.128,0,0,0,1.875.239,3.745,3.745,0,0,1,.02-1.926,4.066,4.066,0,0,1,2.365-2.754,5.138,5.138,0,0,1,.927-0.28Z"/>
</svg>
