<svg xmlns="http://www.w3.org/2000/svg" width="64" height="54" viewBox="0 0 64 54">
  <defs>
    <style>
      .cls-1 {
        fill: #fff;
        fill-rule: evenodd;
      }
    </style>
  </defs>
  <path id="LINE_GRAPH" data-name="LINE GRAPH" class="cls-1" d="M62.708,18.466l-0.03.021h0L36.708,36.467l0,0a2.988,2.988,0,0,1-3.369.031h0l-0.011-.007,0,0L19.9,27.539,6,35.716V48H61a3,3,0,0,1,0,6H3a3,3,0,0,1-3-3V3A3,3,0,0,1,6,3V28.755l12.479-7.341,0.006,0.01a2.956,2.956,0,0,1,3.179.081h0l0.011,0.007,0,0,13.289,8.859,24.324-16.84,0,0a3,3,0,1,1,3.412,4.928Z"/>
</svg>
