<svg xmlns="http://www.w3.org/2000/svg" width="64" height="55" viewBox="0 0 64 55">
  <defs>
    <style>
      .cls-1 {
        fill: #fff;
        fill-rule: evenodd;
      }
    </style>
  </defs>
  <path id="CLOUD_UPLOAD" data-name="CLOUD / UPLOAD" class="cls-1" d="M49,44a3,3,0,0,1,0-6,8.991,8.991,0,0,0,5.963-15.728q-0.288-.255-0.6-0.485l-0.04-.03c-0.194-.144-0.395-0.278-0.6-0.406l-0.1-.058q-0.287-.174-0.588-0.326c-0.055-.028-0.111-0.054-0.167-0.081-0.184-.089-0.371-0.172-0.561-0.248-0.083-.033-0.168-0.061-0.252-0.092-0.171-.062-0.343-0.123-0.519-0.175-0.116-.034-0.236-0.062-0.354-0.091-0.152-.038-0.3-0.079-0.457-0.109S50.4,20.118,50.238,20.1c-0.119-.017-0.236-0.039-0.356-0.05C49.592,20.017,49.3,20,49,20c-0.094,0-.185.011-0.278,0.014C48.631,19.5,48.516,19,48.38,18.5c-0.033-.121-0.078-0.237-0.114-0.357-0.112-.375-0.227-0.748-0.364-1.112-0.041-.11-0.092-0.215-0.135-0.324-0.148-.369-0.3-0.737-0.473-1.093-0.042-.086-0.09-0.168-0.133-0.253-0.188-.373-0.384-0.741-0.6-1.1a16.96,16.96,0,0,0-29.124,0c-0.215.356-.41,0.725-0.6,1.1-0.043.085-.091,0.167-0.133,0.253-0.173.356-.325,0.724-0.473,1.093-0.043.109-.094,0.214-0.135,0.324-0.137.363-.252,0.737-0.364,1.112-0.036.12-.081,0.236-0.114,0.357-0.136.5-.251,1-0.342,1.512C15.185,20.011,15.094,20,15,20c-0.3,0-.592.016-0.882,0.044-0.12.011-.237,0.034-0.356,0.05-0.165.022-.331,0.043-0.493,0.075s-0.306.07-.457,0.109c-0.118.029-.238,0.057-0.354,0.091-0.176.052-.348,0.113-0.519,0.175-0.084.031-.169,0.059-0.252,0.092-0.191.076-.377,0.16-0.561,0.248-0.056.026-.112,0.053-0.167,0.081q-0.3.152-.588,0.326l-0.1.058c-0.206.128-.406,0.262-0.6,0.406l-0.04.03q-0.309.23-.6,0.485A8.991,8.991,0,0,0,15,38a3,3,0,0,1,0,6,15,15,0,0,1-4.387-29.345,22.933,22.933,0,0,1,42.773,0A15,15,0,0,1,49,44ZM20.77,36.993l0.006-.006,0.006-.007,8.988-9.987L29.778,27a2.967,2.967,0,0,1,4.444,0l0.008-.007,8.99,9.989,0,0,0.008,0.009h0a2.988,2.988,0,0,1,.756,1.719s0,0,0,.006C44,38.811,44,38.9,44,39v0a3,3,0,0,1-3,3l-0.1,0-0.059,0-0.063,0-0.1-.008-0.034,0c-0.044-.005-0.088-0.011-0.132-0.018h0a2.994,2.994,0,0,1-1.742-.953h0L35,36.818V52a3,3,0,1,1-6,0V36.818l-3.77,4.189h0a3,3,0,0,1-1.74.953h0c-0.043.007-.086,0.013-0.13,0.018l-0.036,0-0.1.008L23.157,42H23.1L23,42a3,3,0,0,1-2.23-5.007h0Z"/>
</svg>
